# Blender 4.1.1
# www.blender.org
mtllib leaf3.mtl
o Cube.001
v -0.080829 -0.089780 -0.220814
v -0.080829 0.089780 -0.220814
v -0.045902 -0.089780 -0.396944
v -0.045902 0.089780 -0.396944
v 1.556085 -0.089780 0.396944
v 1.556085 0.089780 0.396944
v 1.591012 -0.089780 0.220814
v 1.591012 0.089780 0.220814
v -1.000000 -0.098667 1.000000
v -1.000000 0.098667 1.000000
v -1.000000 -0.098667 -1.000000
v -1.000000 0.098667 -1.000000
v 1.000000 -0.098667 1.000000
v 1.000000 0.098667 1.000000
v 1.000000 -0.098667 -1.000000
v 1.000000 0.098667 -1.000000
v -1.222568 -0.098667 0.800832
v -1.222568 -0.098667 -0.800832
v -0.916566 -0.098667 -0.000000
v -1.496917 -0.098667 0.433407
v -1.593255 -0.098667 0.000000
v -1.496917 -0.098667 -0.433407
v -1.222568 0.098667 -0.800832
v -1.222568 0.098667 0.800832
v -0.916566 0.098667 -0.000000
v -1.496917 0.098667 -0.433407
v -1.593255 0.098667 0.000000
v -1.496917 0.098667 0.433407
v 1.722562 -0.098667 -0.353404
v 1.722562 -0.098667 0.353404
v 1.587524 -0.098667 -0.000000
v 1.886145 -0.098667 0.000000
v 1.722562 0.098667 0.353404
v 1.722562 0.098667 -0.353404
v 1.587524 0.098667 -0.000000
v 1.886145 0.098667 -0.000000
v 0.000000 -0.098667 -1.143116
v 0.000000 0.098667 -1.143116
v -0.000000 -0.098667 1.143116
v -0.000000 0.098667 1.143116
vn -0.9809 -0.0000 -0.1945
vn 0.3531 -0.0000 -0.9356
vn 0.9809 -0.0000 0.1945
vn -0.3531 -0.0000 0.9356
vn -0.0000 -1.0000 -0.0000
vn -0.0000 1.0000 -0.0000
vn 0.1417 -0.0000 -0.9899
vn -0.1417 -0.0000 0.9899
vn -0.6668 -0.0000 -0.7452
vn 0.6668 -0.0000 0.7452
vn 0.6668 -0.0000 -0.7452
vn -0.8013 -0.0000 -0.5983
vn -0.9762 -0.0000 -0.2170
vn -0.9762 -0.0000 0.2170
vn -0.8013 -0.0000 0.5983
vn -0.6668 -0.0000 0.7452
vn 0.9075 -0.0000 0.4201
vn 0.9075 -0.0000 -0.4201
vn -0.1417 -0.0000 -0.9899
vn 0.1417 -0.0000 0.9899
vt 0.375000 0.000000
vt 0.625000 0.000000
vt 0.625000 0.250000
vt 0.375000 0.250000
vt 0.625000 0.500000
vt 0.375000 0.500000
vt 0.625000 0.750000
vt 0.375000 0.750000
vt 0.625000 1.000000
vt 0.375000 1.000000
vt 0.125000 0.500000
vt 0.125000 0.750000
vt 0.875000 0.500000
vt 0.875000 0.750000
vt 0.375000 0.375000
vt 0.625000 0.375000
vt 0.625000 0.669176
vt 0.656285 0.625000
vt 0.804107 0.625000
vt 0.875000 0.725104
vt 0.750000 0.750000
vt 0.375000 0.875000
vt 0.625000 0.875000
vt 0.375000 0.225104
vt 0.625000 0.225104
vt 0.750000 0.500000
vt 0.875000 0.524896
vt 0.656285 0.625000
vt 0.625000 0.580824
vt 0.375000 0.669176
vt 0.625000 0.669176
vt 0.125000 0.725104
vt 0.195893 0.625000
vt 0.343715 0.625000
vt 0.375000 0.669176
vt 0.250000 0.750000
vt 0.625000 0.580824
vt 0.375000 0.580824
vt 0.125000 0.725104
vt 0.134003 0.679176
vt 0.155947 0.625000
vt 0.161634 0.625000
vt 0.177829 0.625000
vt 0.822171 0.625000
vt 0.821909 0.570824
vt 0.844053 0.625000
vt 0.875000 0.687639
vt 0.375000 0.187639
vt 0.625000 0.187639
vt 0.375000 0.125000
vt 0.625000 0.125000
vt 0.375000 0.062361
vt 0.625000 0.062361
vt 0.375000 0.024896
vt 0.625000 0.024896
vt 0.375000 0.610630
vt 0.375000 0.620113
vt 0.625000 0.639370
vt 0.625000 0.629887
vt 0.375000 0.625000
vt 0.625000 0.625000
vt 0.250000 0.500000
vt 0.375000 0.580824
vt 0.125000 0.524896
s 0
usemtl Material.001
f 1/1/1 2/2/1 4/3/1 3/4/1
f 3/4/2 4/3/2 8/5/2 7/6/2
f 7/6/3 8/5/3 6/7/3 5/8/3
f 5/8/4 6/7/4 2/9/4 1/10/4
f 3/11/5 7/6/5 5/8/5 1/12/5
f 8/5/6 4/13/6 2/14/6 6/7/6
f 37/15/7 38/16/7 16/5/7 15/6/7
f 33/17/6 35/18/6 25/19/6 24/20/6 10/14/6 40/21/6 14/7/6
f 39/22/8 40/23/8 10/9/8 9/10/8
f 18/24/9 23/25/9 12/3/9 11/4/9
f 16/5/6 38/26/6 12/13/6 23/27/6 25/19/6 35/28/6 34/29/6
f 30/30/10 33/31/10 14/7/10 13/8/10
f 17/32/5 19/33/5 31/34/5 30/35/5 13/8/5 39/36/5 9/12/5
f 15/6/11 16/5/11 34/37/11 29/38/11
f 17/39/5 20/40/5 19/33/5
f 20/40/5 21/41/5 19/33/5
f 21/41/5 22/42/5 19/33/5
f 22/42/5 18/43/5 19/33/5
f 23/44/6 26/45/6 25/19/6
f 26/45/6 27/46/6 25/19/6
f 27/46/6 28/47/6 25/19/6
f 28/47/6 24/20/6 25/19/6
f 23/25/12 18/24/12 22/48/12 26/49/12
f 26/49/13 22/48/13 21/50/13 27/51/13
f 27/51/14 21/50/14 20/52/14 28/53/14
f 28/53/15 20/52/15 17/54/15 24/55/15
f 9/1/16 10/2/16 24/55/16 17/54/16
f 29/38/5 32/56/5 31/34/5
f 32/56/5 30/57/5 31/34/5
f 33/31/6 36/58/6 35/28/6
f 36/58/6 34/59/6 35/28/6
f 33/31/17 30/30/17 32/60/17 36/61/17
f 36/61/18 32/60/18 29/38/18 34/37/18
f 11/11/5 37/62/5 15/6/5 29/63/5 31/34/5 19/33/5 18/64/5
f 11/4/19 12/3/19 38/16/19 37/15/19
f 13/8/20 14/7/20 40/23/20 39/22/20
